M48
; DRILL file {KiCad (5.1.0)-1} date 16/05/2019 15:59:17
; FORMAT={-:-/ absolute / metric / decimal}
; #@! TF.CreationDate,2019-05-16T15:59:17+08:00
; #@! TF.GenerationSoftware,Kicad,Pcbnew,(5.1.0)-1
; #@! TF.FileFunction,Plated,1,2,PTH
FMAT,2
METRIC
T1C0.400
T2C0.600
T3C0.762
T4C0.800
T5C0.900
T6C1.000
T7C2.800
%
G90
G05
T1
X80.645Y-107.315
X83.82Y-83.82
X83.82Y-89.535
X85.725Y-81.915
X85.725Y-83.82
X85.725Y-85.725
X85.725Y-87.63
X85.725Y-89.535
X85.725Y-91.44
X87.63Y-83.82
X87.63Y-89.535
X92.71Y-130.175
X95.25Y-120.65
X101.6Y-120.65
X114.3Y-123.19
X119.38Y-100.33
X119.38Y-120.65
X121.285Y-91.44
X121.285Y-91.44
X142.875Y-111.125
X146.685Y-111.76
X147.35Y-120.62
X156.9Y-127.055
T2
X124.895Y-87.63
X125.884Y-85.244
X125.884Y-90.016
X128.27Y-84.255
X128.27Y-91.005
X130.656Y-85.244
X130.656Y-90.016
X131.645Y-87.63
X123.625Y-135.89
X124.614Y-133.504
X124.614Y-138.276
X127.0Y-132.515
X127.0Y-139.265
X129.386Y-133.504
X129.386Y-138.276
X130.375Y-135.89
X98.225Y-87.63
X99.214Y-85.244
X99.214Y-90.016
X101.6Y-84.255
X101.6Y-91.005
X103.986Y-85.244
X103.986Y-90.016
X104.975Y-87.63
X72.825Y-87.63
X73.814Y-85.244
X73.814Y-90.016
X76.2Y-84.255
X76.2Y-91.005
X78.586Y-85.244
X78.586Y-90.016
X79.575Y-87.63
X149.025Y-87.63
X150.014Y-85.244
X150.014Y-90.016
X152.4Y-84.255
X152.4Y-91.005
X154.786Y-85.244
X154.786Y-90.016
X155.775Y-87.63
X149.025Y-135.89
X150.014Y-133.504
X150.014Y-138.276
X152.4Y-132.515
X152.4Y-139.265
X154.786Y-133.504
X154.786Y-138.276
X155.775Y-135.89
X72.825Y-135.89
X73.814Y-133.504
X73.814Y-138.276
X76.2Y-132.515
X76.2Y-139.265
X78.586Y-133.504
X78.586Y-138.276
X79.575Y-135.89
X98.225Y-135.89
X99.214Y-133.504
X99.214Y-138.276
X101.6Y-132.515
X101.6Y-139.265
X103.986Y-133.504
X103.986Y-138.276
X104.975Y-135.89
T3
X136.906Y-77.47
X138.43Y-77.47
X140.081Y-77.47
X141.605Y-77.47
T4
X72.39Y-95.25
X72.39Y-105.41
X95.25Y-95.25
X95.25Y-105.41
X104.14Y-95.25
X104.14Y-105.41
X137.16Y-95.25
X137.16Y-105.41
X144.78Y-106.68
X144.78Y-116.84
X82.55Y-95.25
X82.55Y-105.41
X104.14Y-118.11
X104.14Y-128.27
X152.4Y-106.68
X152.4Y-116.84
X130.81Y-95.25
X130.81Y-105.41
X140.97Y-106.68
X140.97Y-116.84
X80.01Y-111.76
X80.01Y-121.92
X77.47Y-95.25
X77.47Y-105.41
X95.25Y-118.11
X95.25Y-128.27
X148.59Y-106.68
X148.59Y-116.84
X130.81Y-118.11
X130.81Y-128.27
X137.16Y-118.11
X137.16Y-128.27
X87.63Y-95.25
X87.63Y-105.41
T5
X99.06Y-109.093
X99.06Y-111.693
X99.06Y-114.293
X111.76Y-123.07
X111.76Y-125.67
X111.76Y-128.27
X121.92Y-95.13
X121.92Y-97.73
X121.92Y-100.33
X76.2Y-109.1
X76.2Y-111.7
X76.2Y-114.3
X134.62Y-109.1
X134.62Y-111.7
X134.62Y-114.3
X127.0Y-95.13
X127.0Y-97.73
X127.0Y-100.33
X90.17Y-109.1
X90.17Y-111.7
X90.17Y-114.3
X147.32Y-95.13
X147.32Y-97.73
X147.32Y-100.33
X99.06Y-123.063
X99.06Y-125.663
X99.06Y-128.263
X152.4Y-123.07
X152.4Y-125.67
X152.4Y-128.27
X111.76Y-95.13
X111.76Y-97.73
X111.76Y-100.33
X116.84Y-123.07
X116.84Y-125.67
X116.84Y-128.27
X71.12Y-109.1
X71.12Y-111.7
X71.12Y-114.3
X127.0Y-123.07
X127.0Y-125.67
X127.0Y-128.27
X85.09Y-109.1
X85.09Y-111.7
X85.09Y-114.3
X142.24Y-123.07
X142.24Y-125.67
X142.24Y-128.27
X90.17Y-123.07
X90.17Y-125.67
X90.17Y-128.27
X152.4Y-95.13
X152.4Y-97.73
X152.4Y-100.33
X99.06Y-95.25
X99.06Y-97.85
X99.06Y-100.45
X116.84Y-95.13
X116.84Y-97.73
X116.84Y-100.33
X71.12Y-123.07
X71.12Y-125.67
X71.12Y-128.27
X121.92Y-123.07
X121.92Y-125.67
X121.92Y-128.27
X76.2Y-123.07
X76.2Y-125.67
X76.2Y-128.27
X142.24Y-95.13
X142.24Y-97.73
X142.24Y-100.33
X85.09Y-123.07
X85.09Y-125.67
X85.09Y-128.27
X147.32Y-123.07
X147.32Y-125.67
X147.32Y-128.27
T6
X157.48Y-102.87
X157.48Y-105.41
X157.48Y-107.95
X157.48Y-110.49
X157.48Y-113.03
X157.48Y-115.57
X157.48Y-118.11
X157.48Y-120.65
T7
X76.2Y-135.89
X128.27Y-87.63
X127.0Y-135.89
X76.2Y-87.63
X152.4Y-87.63
X152.4Y-135.89
X101.6Y-135.89
X101.6Y-87.63
T0
M30
