G04 #@! TF.GenerationSoftware,KiCad,Pcbnew,(5.1.0)-1*
G04 #@! TF.CreationDate,2019-05-16T15:59:12+08:00*
G04 #@! TF.ProjectId,555,3535352e-6b69-4636-9164-5f7063625858,V1.001*
G04 #@! TF.SameCoordinates,Original*
G04 #@! TF.FileFunction,Legend,Top*
G04 #@! TF.FilePolarity,Positive*
%FSLAX46Y46*%
G04 Gerber Fmt 4.6, Leading zero omitted, Abs format (unit mm)*
G04 Created by KiCad (PCBNEW (5.1.0)-1) date 2019-05-16 15:59:12*
%MOMM*%
%LPD*%
G04 APERTURE LIST*
%ADD10C,0.203200*%
%ADD11C,0.100000*%
%ADD12C,4.000000*%
%ADD13C,0.150000*%
%ADD14C,0.120000*%
%ADD15C,0.304800*%
G04 APERTURE END LIST*
D10*
X159899047Y-103093761D02*
X159850666Y-103190523D01*
X159802285Y-103238904D01*
X159705523Y-103287285D01*
X159657142Y-103287285D01*
X159560380Y-103238904D01*
X159512000Y-103190523D01*
X159463619Y-103093761D01*
X159463619Y-102900238D01*
X159512000Y-102803476D01*
X159560380Y-102755095D01*
X159657142Y-102706714D01*
X159705523Y-102706714D01*
X159802285Y-102755095D01*
X159850666Y-102803476D01*
X159899047Y-102900238D01*
X159899047Y-103093761D01*
X159947428Y-103190523D01*
X159995809Y-103238904D01*
X160092571Y-103287285D01*
X160286095Y-103287285D01*
X160382857Y-103238904D01*
X160431238Y-103190523D01*
X160479619Y-103093761D01*
X160479619Y-102900238D01*
X160431238Y-102803476D01*
X160382857Y-102755095D01*
X160286095Y-102706714D01*
X160092571Y-102706714D01*
X159995809Y-102755095D01*
X159947428Y-102803476D01*
X159899047Y-102900238D01*
X159463619Y-105748666D02*
X159463619Y-105071333D01*
X160479619Y-105506761D01*
X159463619Y-107883476D02*
X159463619Y-108077000D01*
X159512000Y-108173761D01*
X159560380Y-108222142D01*
X159705523Y-108318904D01*
X159899047Y-108367285D01*
X160286095Y-108367285D01*
X160382857Y-108318904D01*
X160431238Y-108270523D01*
X160479619Y-108173761D01*
X160479619Y-107980238D01*
X160431238Y-107883476D01*
X160382857Y-107835095D01*
X160286095Y-107786714D01*
X160044190Y-107786714D01*
X159947428Y-107835095D01*
X159899047Y-107883476D01*
X159850666Y-107980238D01*
X159850666Y-108173761D01*
X159899047Y-108270523D01*
X159947428Y-108318904D01*
X160044190Y-108367285D01*
X159590619Y-110248095D02*
X159590619Y-110731904D01*
X160074428Y-110780285D01*
X160026047Y-110731904D01*
X159977666Y-110635142D01*
X159977666Y-110393238D01*
X160026047Y-110296476D01*
X160074428Y-110248095D01*
X160171190Y-110199714D01*
X160413095Y-110199714D01*
X160509857Y-110248095D01*
X160558238Y-110296476D01*
X160606619Y-110393238D01*
X160606619Y-110635142D01*
X160558238Y-110731904D01*
X160509857Y-110780285D01*
X159929285Y-112836476D02*
X160606619Y-112836476D01*
X159542238Y-113078380D02*
X160267952Y-113320285D01*
X160267952Y-112691333D01*
X159590619Y-115908666D02*
X159590619Y-115279714D01*
X159977666Y-115618380D01*
X159977666Y-115473238D01*
X160026047Y-115376476D01*
X160074428Y-115328095D01*
X160171190Y-115279714D01*
X160413095Y-115279714D01*
X160509857Y-115328095D01*
X160558238Y-115376476D01*
X160606619Y-115473238D01*
X160606619Y-115763523D01*
X160558238Y-115860285D01*
X160509857Y-115908666D01*
X159687380Y-118400285D02*
X159639000Y-118351904D01*
X159590619Y-118255142D01*
X159590619Y-118013238D01*
X159639000Y-117916476D01*
X159687380Y-117868095D01*
X159784142Y-117819714D01*
X159880904Y-117819714D01*
X160026047Y-117868095D01*
X160606619Y-118448666D01*
X160606619Y-117819714D01*
X160606619Y-120359714D02*
X160606619Y-120940285D01*
X160606619Y-120650000D02*
X159590619Y-120650000D01*
X159735761Y-120746761D01*
X159832523Y-120843523D01*
X159880904Y-120940285D01*
D11*
G36*
X81915000Y-130175000D02*
G01*
X80645000Y-130175000D01*
X80645000Y-128905000D01*
X81280000Y-128905000D01*
X81915000Y-130175000D01*
G37*
X81915000Y-130175000D02*
X80645000Y-130175000D01*
X80645000Y-128905000D01*
X81280000Y-128905000D01*
X81915000Y-130175000D01*
D12*
X81126000Y-129540000D02*
G75*
G03X81126000Y-129540000I-100000J0D01*
G01*
D10*
X133991047Y-73357619D02*
X133991047Y-74083333D01*
X133942666Y-74228476D01*
X133845904Y-74325238D01*
X133700761Y-74373619D01*
X133604000Y-74373619D01*
X134958666Y-74373619D02*
X134474857Y-74373619D01*
X134474857Y-73357619D01*
X135877904Y-74276857D02*
X135829523Y-74325238D01*
X135684380Y-74373619D01*
X135587619Y-74373619D01*
X135442476Y-74325238D01*
X135345714Y-74228476D01*
X135297333Y-74131714D01*
X135248952Y-73938190D01*
X135248952Y-73793047D01*
X135297333Y-73599523D01*
X135345714Y-73502761D01*
X135442476Y-73406000D01*
X135587619Y-73357619D01*
X135684380Y-73357619D01*
X135829523Y-73406000D01*
X135877904Y-73454380D01*
X136603619Y-73357619D02*
X136603619Y-74083333D01*
X136555238Y-74228476D01*
X136458476Y-74325238D01*
X136313333Y-74373619D01*
X136216571Y-74373619D01*
X137571238Y-74373619D02*
X137087428Y-74373619D01*
X137087428Y-73357619D01*
X138490476Y-74276857D02*
X138442095Y-74325238D01*
X138296952Y-74373619D01*
X138200190Y-74373619D01*
X138055047Y-74325238D01*
X137958285Y-74228476D01*
X137909904Y-74131714D01*
X137861523Y-73938190D01*
X137861523Y-73793047D01*
X137909904Y-73599523D01*
X137958285Y-73502761D01*
X138055047Y-73406000D01*
X138200190Y-73357619D01*
X138296952Y-73357619D01*
X138442095Y-73406000D01*
X138490476Y-73454380D01*
X139216190Y-73357619D02*
X139216190Y-74083333D01*
X139167809Y-74228476D01*
X139071047Y-74325238D01*
X138925904Y-74373619D01*
X138829142Y-74373619D01*
X140183809Y-74373619D02*
X139700000Y-74373619D01*
X139700000Y-73357619D01*
X141103047Y-74276857D02*
X141054666Y-74325238D01*
X140909523Y-74373619D01*
X140812761Y-74373619D01*
X140667619Y-74325238D01*
X140570857Y-74228476D01*
X140522476Y-74131714D01*
X140474095Y-73938190D01*
X140474095Y-73793047D01*
X140522476Y-73599523D01*
X140570857Y-73502761D01*
X140667619Y-73406000D01*
X140812761Y-73357619D01*
X140909523Y-73357619D01*
X141054666Y-73406000D01*
X141103047Y-73454380D01*
X141828761Y-73357619D02*
X141828761Y-74083333D01*
X141780380Y-74228476D01*
X141683619Y-74325238D01*
X141538476Y-74373619D01*
X141441714Y-74373619D01*
X142796380Y-74373619D02*
X142312571Y-74373619D01*
X142312571Y-73357619D01*
X143715619Y-74276857D02*
X143667238Y-74325238D01*
X143522095Y-74373619D01*
X143425333Y-74373619D01*
X143280190Y-74325238D01*
X143183428Y-74228476D01*
X143135047Y-74131714D01*
X143086666Y-73938190D01*
X143086666Y-73793047D01*
X143135047Y-73599523D01*
X143183428Y-73502761D01*
X143280190Y-73406000D01*
X143425333Y-73357619D01*
X143522095Y-73357619D01*
X143667238Y-73406000D01*
X143715619Y-73454380D01*
D13*
X125450000Y-95780000D02*
G75*
G03X125400000Y-99630000I1900000J-1950000D01*
G01*
D11*
X128600000Y-95380000D02*
X128300000Y-95230000D01*
X128600000Y-95380000D02*
X128600000Y-95680000D01*
X128600000Y-99780000D02*
X128600000Y-100080000D01*
X128600000Y-100080000D02*
X128300000Y-100230000D01*
D14*
X87630000Y-104370000D02*
X87630000Y-103600000D01*
X87630000Y-96290000D02*
X87630000Y-97060000D01*
X89000000Y-103600000D02*
X89000000Y-97060000D01*
X86260000Y-103600000D02*
X89000000Y-103600000D01*
X86260000Y-97060000D02*
X86260000Y-103600000D01*
X89000000Y-97060000D02*
X86260000Y-97060000D01*
X81380000Y-113570000D02*
X78640000Y-113570000D01*
X78640000Y-113570000D02*
X78640000Y-120110000D01*
X78640000Y-120110000D02*
X81380000Y-120110000D01*
X81380000Y-120110000D02*
X81380000Y-113570000D01*
X80010000Y-112800000D02*
X80010000Y-113570000D01*
X80010000Y-120880000D02*
X80010000Y-120110000D01*
X158810000Y-121980000D02*
X157480000Y-121980000D01*
X158810000Y-120650000D02*
X158810000Y-121980000D01*
X158810000Y-119380000D02*
X156150000Y-119380000D01*
X156150000Y-119380000D02*
X156150000Y-101540000D01*
X158810000Y-119380000D02*
X158810000Y-101540000D01*
X158810000Y-101540000D02*
X156150000Y-101540000D01*
D13*
X69570000Y-123720000D02*
G75*
G03X69520000Y-127570000I1900000J-1950000D01*
G01*
D11*
X72720000Y-123320000D02*
X72420000Y-123170000D01*
X72720000Y-123320000D02*
X72720000Y-123620000D01*
X72720000Y-127720000D02*
X72720000Y-128020000D01*
X72720000Y-128020000D02*
X72420000Y-128170000D01*
D13*
X69570000Y-109750000D02*
G75*
G03X69520000Y-113600000I1900000J-1950000D01*
G01*
D11*
X72720000Y-109350000D02*
X72420000Y-109200000D01*
X72720000Y-109350000D02*
X72720000Y-109650000D01*
X72720000Y-113750000D02*
X72720000Y-114050000D01*
X72720000Y-114050000D02*
X72420000Y-114200000D01*
X77800000Y-114050000D02*
X77500000Y-114200000D01*
X77800000Y-113750000D02*
X77800000Y-114050000D01*
X77800000Y-109350000D02*
X77800000Y-109650000D01*
X77800000Y-109350000D02*
X77500000Y-109200000D01*
D13*
X74650000Y-109750000D02*
G75*
G03X74600000Y-113600000I1900000J-1950000D01*
G01*
X74650000Y-123720000D02*
G75*
G03X74600000Y-127570000I1900000J-1950000D01*
G01*
D11*
X77800000Y-123320000D02*
X77500000Y-123170000D01*
X77800000Y-123320000D02*
X77800000Y-123620000D01*
X77800000Y-127720000D02*
X77800000Y-128020000D01*
X77800000Y-128020000D02*
X77500000Y-128170000D01*
D13*
X83540000Y-109750000D02*
G75*
G03X83490000Y-113600000I1900000J-1950000D01*
G01*
D11*
X86690000Y-109350000D02*
X86390000Y-109200000D01*
X86690000Y-109350000D02*
X86690000Y-109650000D01*
X86690000Y-113750000D02*
X86690000Y-114050000D01*
X86690000Y-114050000D02*
X86390000Y-114200000D01*
D13*
X88620000Y-109750000D02*
G75*
G03X88570000Y-113600000I1900000J-1950000D01*
G01*
D11*
X91770000Y-109350000D02*
X91470000Y-109200000D01*
X91770000Y-109350000D02*
X91770000Y-109650000D01*
X91770000Y-113750000D02*
X91770000Y-114050000D01*
X91770000Y-114050000D02*
X91470000Y-114200000D01*
X86690000Y-128020000D02*
X86390000Y-128170000D01*
X86690000Y-127720000D02*
X86690000Y-128020000D01*
X86690000Y-123320000D02*
X86690000Y-123620000D01*
X86690000Y-123320000D02*
X86390000Y-123170000D01*
D13*
X83540000Y-123720000D02*
G75*
G03X83490000Y-127570000I1900000J-1950000D01*
G01*
D11*
X91770000Y-128020000D02*
X91470000Y-128170000D01*
X91770000Y-127720000D02*
X91770000Y-128020000D01*
X91770000Y-123320000D02*
X91770000Y-123620000D01*
X91770000Y-123320000D02*
X91470000Y-123170000D01*
D13*
X88620000Y-123720000D02*
G75*
G03X88570000Y-127570000I1900000J-1950000D01*
G01*
D11*
X97460000Y-123313000D02*
X97760000Y-123163000D01*
X97460000Y-123613000D02*
X97460000Y-123313000D01*
X97460000Y-128013000D02*
X97460000Y-127713000D01*
X97460000Y-128013000D02*
X97760000Y-128163000D01*
D13*
X100610000Y-127613000D02*
G75*
G03X100660000Y-123763000I-1900000J1950000D01*
G01*
X100610000Y-113643000D02*
G75*
G03X100660000Y-109793000I-1900000J1950000D01*
G01*
D11*
X97460000Y-114043000D02*
X97760000Y-114193000D01*
X97460000Y-114043000D02*
X97460000Y-113743000D01*
X97460000Y-109643000D02*
X97460000Y-109343000D01*
X97460000Y-109343000D02*
X97760000Y-109193000D01*
D13*
X100610000Y-99800000D02*
G75*
G03X100660000Y-95950000I-1900000J1950000D01*
G01*
D11*
X97460000Y-100200000D02*
X97760000Y-100350000D01*
X97460000Y-100200000D02*
X97460000Y-99900000D01*
X97460000Y-95800000D02*
X97460000Y-95500000D01*
X97460000Y-95500000D02*
X97760000Y-95350000D01*
D13*
X110210000Y-95780000D02*
G75*
G03X110160000Y-99630000I1900000J-1950000D01*
G01*
D11*
X113360000Y-95380000D02*
X113060000Y-95230000D01*
X113360000Y-95380000D02*
X113360000Y-95680000D01*
X113360000Y-99780000D02*
X113360000Y-100080000D01*
X113360000Y-100080000D02*
X113060000Y-100230000D01*
X113360000Y-128020000D02*
X113060000Y-128170000D01*
X113360000Y-127720000D02*
X113360000Y-128020000D01*
X113360000Y-123320000D02*
X113360000Y-123620000D01*
X113360000Y-123320000D02*
X113060000Y-123170000D01*
D13*
X110210000Y-123720000D02*
G75*
G03X110160000Y-127570000I1900000J-1950000D01*
G01*
D11*
X118440000Y-100080000D02*
X118140000Y-100230000D01*
X118440000Y-99780000D02*
X118440000Y-100080000D01*
X118440000Y-95380000D02*
X118440000Y-95680000D01*
X118440000Y-95380000D02*
X118140000Y-95230000D01*
D13*
X115290000Y-95780000D02*
G75*
G03X115240000Y-99630000I1900000J-1950000D01*
G01*
X115290000Y-123720000D02*
G75*
G03X115240000Y-127570000I1900000J-1950000D01*
G01*
D11*
X118440000Y-123320000D02*
X118140000Y-123170000D01*
X118440000Y-123320000D02*
X118440000Y-123620000D01*
X118440000Y-127720000D02*
X118440000Y-128020000D01*
X118440000Y-128020000D02*
X118140000Y-128170000D01*
D13*
X120370000Y-95780000D02*
G75*
G03X120320000Y-99630000I1900000J-1950000D01*
G01*
D11*
X123520000Y-95380000D02*
X123220000Y-95230000D01*
X123520000Y-95380000D02*
X123520000Y-95680000D01*
X123520000Y-99780000D02*
X123520000Y-100080000D01*
X123520000Y-100080000D02*
X123220000Y-100230000D01*
X123520000Y-128020000D02*
X123220000Y-128170000D01*
X123520000Y-127720000D02*
X123520000Y-128020000D01*
X123520000Y-123320000D02*
X123520000Y-123620000D01*
X123520000Y-123320000D02*
X123220000Y-123170000D01*
D13*
X120370000Y-123720000D02*
G75*
G03X120320000Y-127570000I1900000J-1950000D01*
G01*
D11*
X128600000Y-128020000D02*
X128300000Y-128170000D01*
X128600000Y-127720000D02*
X128600000Y-128020000D01*
X128600000Y-123320000D02*
X128600000Y-123620000D01*
X128600000Y-123320000D02*
X128300000Y-123170000D01*
D13*
X125450000Y-123720000D02*
G75*
G03X125400000Y-127570000I1900000J-1950000D01*
G01*
X133070000Y-109750000D02*
G75*
G03X133020000Y-113600000I1900000J-1950000D01*
G01*
D11*
X136220000Y-109350000D02*
X135920000Y-109200000D01*
X136220000Y-109350000D02*
X136220000Y-109650000D01*
X136220000Y-113750000D02*
X136220000Y-114050000D01*
X136220000Y-114050000D02*
X135920000Y-114200000D01*
X143840000Y-100080000D02*
X143540000Y-100230000D01*
X143840000Y-99780000D02*
X143840000Y-100080000D01*
X143840000Y-95380000D02*
X143840000Y-95680000D01*
X143840000Y-95380000D02*
X143540000Y-95230000D01*
D13*
X140690000Y-95780000D02*
G75*
G03X140640000Y-99630000I1900000J-1950000D01*
G01*
D11*
X143840000Y-128020000D02*
X143540000Y-128170000D01*
X143840000Y-127720000D02*
X143840000Y-128020000D01*
X143840000Y-123320000D02*
X143840000Y-123620000D01*
X143840000Y-123320000D02*
X143540000Y-123170000D01*
D13*
X140690000Y-123720000D02*
G75*
G03X140640000Y-127570000I1900000J-1950000D01*
G01*
D11*
X148920000Y-100080000D02*
X148620000Y-100230000D01*
X148920000Y-99780000D02*
X148920000Y-100080000D01*
X148920000Y-95380000D02*
X148920000Y-95680000D01*
X148920000Y-95380000D02*
X148620000Y-95230000D01*
D13*
X145770000Y-95780000D02*
G75*
G03X145720000Y-99630000I1900000J-1950000D01*
G01*
X145770000Y-123720000D02*
G75*
G03X145720000Y-127570000I1900000J-1950000D01*
G01*
D11*
X148920000Y-123320000D02*
X148620000Y-123170000D01*
X148920000Y-123320000D02*
X148920000Y-123620000D01*
X148920000Y-127720000D02*
X148920000Y-128020000D01*
X148920000Y-128020000D02*
X148620000Y-128170000D01*
D13*
X150850000Y-95780000D02*
G75*
G03X150800000Y-99630000I1900000J-1950000D01*
G01*
D11*
X154000000Y-95380000D02*
X153700000Y-95230000D01*
X154000000Y-95380000D02*
X154000000Y-95680000D01*
X154000000Y-99780000D02*
X154000000Y-100080000D01*
X154000000Y-100080000D02*
X153700000Y-100230000D01*
D13*
X150850000Y-123720000D02*
G75*
G03X150800000Y-127570000I1900000J-1950000D01*
G01*
D11*
X154000000Y-123320000D02*
X153700000Y-123170000D01*
X154000000Y-123320000D02*
X154000000Y-123620000D01*
X154000000Y-127720000D02*
X154000000Y-128020000D01*
X154000000Y-128020000D02*
X153700000Y-128170000D01*
D14*
X73760000Y-97060000D02*
X71020000Y-97060000D01*
X71020000Y-97060000D02*
X71020000Y-103600000D01*
X71020000Y-103600000D02*
X73760000Y-103600000D01*
X73760000Y-103600000D02*
X73760000Y-97060000D01*
X72390000Y-96290000D02*
X72390000Y-97060000D01*
X72390000Y-104370000D02*
X72390000Y-103600000D01*
X78840000Y-97060000D02*
X76100000Y-97060000D01*
X76100000Y-97060000D02*
X76100000Y-103600000D01*
X76100000Y-103600000D02*
X78840000Y-103600000D01*
X78840000Y-103600000D02*
X78840000Y-97060000D01*
X77470000Y-96290000D02*
X77470000Y-97060000D01*
X77470000Y-104370000D02*
X77470000Y-103600000D01*
X82550000Y-104370000D02*
X82550000Y-103600000D01*
X82550000Y-96290000D02*
X82550000Y-97060000D01*
X83920000Y-103600000D02*
X83920000Y-97060000D01*
X81180000Y-103600000D02*
X83920000Y-103600000D01*
X81180000Y-97060000D02*
X81180000Y-103600000D01*
X83920000Y-97060000D02*
X81180000Y-97060000D01*
X93880000Y-103600000D02*
X96620000Y-103600000D01*
X96620000Y-103600000D02*
X96620000Y-97060000D01*
X96620000Y-97060000D02*
X93880000Y-97060000D01*
X93880000Y-97060000D02*
X93880000Y-103600000D01*
X95250000Y-104370000D02*
X95250000Y-103600000D01*
X95250000Y-96290000D02*
X95250000Y-97060000D01*
X95250000Y-127230000D02*
X95250000Y-126460000D01*
X95250000Y-119150000D02*
X95250000Y-119920000D01*
X96620000Y-126460000D02*
X96620000Y-119920000D01*
X93880000Y-126460000D02*
X96620000Y-126460000D01*
X93880000Y-119920000D02*
X93880000Y-126460000D01*
X96620000Y-119920000D02*
X93880000Y-119920000D01*
X104140000Y-127230000D02*
X104140000Y-126460000D01*
X104140000Y-119150000D02*
X104140000Y-119920000D01*
X105510000Y-126460000D02*
X105510000Y-119920000D01*
X102770000Y-126460000D02*
X105510000Y-126460000D01*
X102770000Y-119920000D02*
X102770000Y-126460000D01*
X105510000Y-119920000D02*
X102770000Y-119920000D01*
X102770000Y-103600000D02*
X105510000Y-103600000D01*
X105510000Y-103600000D02*
X105510000Y-97060000D01*
X105510000Y-97060000D02*
X102770000Y-97060000D01*
X102770000Y-97060000D02*
X102770000Y-103600000D01*
X104140000Y-104370000D02*
X104140000Y-103600000D01*
X104140000Y-96290000D02*
X104140000Y-97060000D01*
X130810000Y-119150000D02*
X130810000Y-119920000D01*
X130810000Y-127230000D02*
X130810000Y-126460000D01*
X129440000Y-119920000D02*
X129440000Y-126460000D01*
X132180000Y-119920000D02*
X129440000Y-119920000D01*
X132180000Y-126460000D02*
X132180000Y-119920000D01*
X129440000Y-126460000D02*
X132180000Y-126460000D01*
X130810000Y-96290000D02*
X130810000Y-97060000D01*
X130810000Y-104370000D02*
X130810000Y-103600000D01*
X129440000Y-97060000D02*
X129440000Y-103600000D01*
X132180000Y-97060000D02*
X129440000Y-97060000D01*
X132180000Y-103600000D02*
X132180000Y-97060000D01*
X129440000Y-103600000D02*
X132180000Y-103600000D01*
X138530000Y-97060000D02*
X135790000Y-97060000D01*
X135790000Y-97060000D02*
X135790000Y-103600000D01*
X135790000Y-103600000D02*
X138530000Y-103600000D01*
X138530000Y-103600000D02*
X138530000Y-97060000D01*
X137160000Y-96290000D02*
X137160000Y-97060000D01*
X137160000Y-104370000D02*
X137160000Y-103600000D01*
X135790000Y-126460000D02*
X138530000Y-126460000D01*
X138530000Y-126460000D02*
X138530000Y-119920000D01*
X138530000Y-119920000D02*
X135790000Y-119920000D01*
X135790000Y-119920000D02*
X135790000Y-126460000D01*
X137160000Y-127230000D02*
X137160000Y-126460000D01*
X137160000Y-119150000D02*
X137160000Y-119920000D01*
X140970000Y-107720000D02*
X140970000Y-108490000D01*
X140970000Y-115800000D02*
X140970000Y-115030000D01*
X139600000Y-108490000D02*
X139600000Y-115030000D01*
X142340000Y-108490000D02*
X139600000Y-108490000D01*
X142340000Y-115030000D02*
X142340000Y-108490000D01*
X139600000Y-115030000D02*
X142340000Y-115030000D01*
X144780000Y-107720000D02*
X144780000Y-108490000D01*
X144780000Y-115800000D02*
X144780000Y-115030000D01*
X143410000Y-108490000D02*
X143410000Y-115030000D01*
X146150000Y-108490000D02*
X143410000Y-108490000D01*
X146150000Y-115030000D02*
X146150000Y-108490000D01*
X143410000Y-115030000D02*
X146150000Y-115030000D01*
X149960000Y-108490000D02*
X147220000Y-108490000D01*
X147220000Y-108490000D02*
X147220000Y-115030000D01*
X147220000Y-115030000D02*
X149960000Y-115030000D01*
X149960000Y-115030000D02*
X149960000Y-108490000D01*
X148590000Y-107720000D02*
X148590000Y-108490000D01*
X148590000Y-115800000D02*
X148590000Y-115030000D01*
X152400000Y-107720000D02*
X152400000Y-108490000D01*
X152400000Y-115800000D02*
X152400000Y-115030000D01*
X151030000Y-108490000D02*
X151030000Y-115030000D01*
X153770000Y-108490000D02*
X151030000Y-108490000D01*
X153770000Y-115030000D02*
X153770000Y-108490000D01*
X151030000Y-115030000D02*
X153770000Y-115030000D01*
D15*
X98552000Y-82199238D02*
X98552000Y-80167238D01*
X99035809Y-80167238D01*
X99326095Y-80264000D01*
X99519619Y-80457523D01*
X99616380Y-80651047D01*
X99713142Y-81038095D01*
X99713142Y-81328380D01*
X99616380Y-81715428D01*
X99519619Y-81908952D01*
X99326095Y-82102476D01*
X99035809Y-82199238D01*
X98552000Y-82199238D01*
X100584000Y-82199238D02*
X100584000Y-80167238D01*
X101454857Y-82102476D02*
X101745142Y-82199238D01*
X102228952Y-82199238D01*
X102422476Y-82102476D01*
X102519238Y-82005714D01*
X102616000Y-81812190D01*
X102616000Y-81618666D01*
X102519238Y-81425142D01*
X102422476Y-81328380D01*
X102228952Y-81231619D01*
X101841904Y-81134857D01*
X101648380Y-81038095D01*
X101551619Y-80941333D01*
X101454857Y-80747809D01*
X101454857Y-80554285D01*
X101551619Y-80360761D01*
X101648380Y-80264000D01*
X101841904Y-80167238D01*
X102325714Y-80167238D01*
X102616000Y-80264000D01*
X103486857Y-82199238D02*
X103486857Y-80167238D01*
X103486857Y-81134857D02*
X104648000Y-81134857D01*
X104648000Y-82199238D02*
X104648000Y-80167238D01*
X149448761Y-143159238D02*
X148771428Y-142191619D01*
X148287619Y-143159238D02*
X148287619Y-141127238D01*
X149061714Y-141127238D01*
X149255238Y-141224000D01*
X149352000Y-141320761D01*
X149448761Y-141514285D01*
X149448761Y-141804571D01*
X149352000Y-141998095D01*
X149255238Y-142094857D01*
X149061714Y-142191619D01*
X148287619Y-142191619D01*
X150319619Y-142094857D02*
X150996952Y-142094857D01*
X151287238Y-143159238D02*
X150319619Y-143159238D01*
X150319619Y-141127238D01*
X151287238Y-141127238D01*
X152061333Y-143062476D02*
X152351619Y-143159238D01*
X152835428Y-143159238D01*
X153028952Y-143062476D01*
X153125714Y-142965714D01*
X153222476Y-142772190D01*
X153222476Y-142578666D01*
X153125714Y-142385142D01*
X153028952Y-142288380D01*
X152835428Y-142191619D01*
X152448380Y-142094857D01*
X152254857Y-141998095D01*
X152158095Y-141901333D01*
X152061333Y-141707809D01*
X152061333Y-141514285D01*
X152158095Y-141320761D01*
X152254857Y-141224000D01*
X152448380Y-141127238D01*
X152932190Y-141127238D01*
X153222476Y-141224000D01*
X154093333Y-142094857D02*
X154770666Y-142094857D01*
X155060952Y-143159238D02*
X154093333Y-143159238D01*
X154093333Y-141127238D01*
X155060952Y-141127238D01*
X155641523Y-141127238D02*
X156802666Y-141127238D01*
X156222095Y-143159238D02*
X156222095Y-141127238D01*
X98503619Y-141127238D02*
X99664761Y-141127238D01*
X99084190Y-143159238D02*
X99084190Y-141127238D01*
X101503238Y-143159238D02*
X100825904Y-142191619D01*
X100342095Y-143159238D02*
X100342095Y-141127238D01*
X101116190Y-141127238D01*
X101309714Y-141224000D01*
X101406476Y-141320761D01*
X101503238Y-141514285D01*
X101503238Y-141804571D01*
X101406476Y-141998095D01*
X101309714Y-142094857D01*
X101116190Y-142191619D01*
X100342095Y-142191619D01*
X102374095Y-143159238D02*
X102374095Y-141127238D01*
X104406095Y-141224000D02*
X104212571Y-141127238D01*
X103922285Y-141127238D01*
X103632000Y-141224000D01*
X103438476Y-141417523D01*
X103341714Y-141611047D01*
X103244952Y-141998095D01*
X103244952Y-142288380D01*
X103341714Y-142675428D01*
X103438476Y-142868952D01*
X103632000Y-143062476D01*
X103922285Y-143159238D01*
X104115809Y-143159238D01*
X104406095Y-143062476D01*
X104502857Y-142965714D01*
X104502857Y-142288380D01*
X104115809Y-142288380D01*
X124968000Y-141127238D02*
X125355047Y-141127238D01*
X125548571Y-141224000D01*
X125742095Y-141417523D01*
X125838857Y-141804571D01*
X125838857Y-142481904D01*
X125742095Y-142868952D01*
X125548571Y-143062476D01*
X125355047Y-143159238D01*
X124968000Y-143159238D01*
X124774476Y-143062476D01*
X124580952Y-142868952D01*
X124484190Y-142481904D01*
X124484190Y-141804571D01*
X124580952Y-141417523D01*
X124774476Y-141224000D01*
X124968000Y-141127238D01*
X126709714Y-141127238D02*
X126709714Y-142772190D01*
X126806476Y-142965714D01*
X126903238Y-143062476D01*
X127096761Y-143159238D01*
X127483809Y-143159238D01*
X127677333Y-143062476D01*
X127774095Y-142965714D01*
X127870857Y-142772190D01*
X127870857Y-141127238D01*
X128548190Y-141127238D02*
X129709333Y-141127238D01*
X129128761Y-143159238D02*
X129128761Y-141127238D01*
X150126095Y-82005714D02*
X150029333Y-82102476D01*
X149739047Y-82199238D01*
X149545523Y-82199238D01*
X149255238Y-82102476D01*
X149061714Y-81908952D01*
X148964952Y-81715428D01*
X148868190Y-81328380D01*
X148868190Y-81038095D01*
X148964952Y-80651047D01*
X149061714Y-80457523D01*
X149255238Y-80264000D01*
X149545523Y-80167238D01*
X149739047Y-80167238D01*
X150029333Y-80264000D01*
X150126095Y-80360761D01*
X151384000Y-80167238D02*
X151771047Y-80167238D01*
X151964571Y-80264000D01*
X152158095Y-80457523D01*
X152254857Y-80844571D01*
X152254857Y-81521904D01*
X152158095Y-81908952D01*
X151964571Y-82102476D01*
X151771047Y-82199238D01*
X151384000Y-82199238D01*
X151190476Y-82102476D01*
X150996952Y-81908952D01*
X150900190Y-81521904D01*
X150900190Y-80844571D01*
X150996952Y-80457523D01*
X151190476Y-80264000D01*
X151384000Y-80167238D01*
X153125714Y-82199238D02*
X153125714Y-80167238D01*
X154286857Y-82199238D01*
X154286857Y-80167238D01*
X154964190Y-80167238D02*
X156125333Y-80167238D01*
X155544761Y-82199238D02*
X155544761Y-80167238D01*
X74651809Y-141224000D02*
X74458285Y-141127238D01*
X74168000Y-141127238D01*
X73877714Y-141224000D01*
X73684190Y-141417523D01*
X73587428Y-141611047D01*
X73490666Y-141998095D01*
X73490666Y-142288380D01*
X73587428Y-142675428D01*
X73684190Y-142868952D01*
X73877714Y-143062476D01*
X74168000Y-143159238D01*
X74361523Y-143159238D01*
X74651809Y-143062476D01*
X74748571Y-142965714D01*
X74748571Y-142288380D01*
X74361523Y-142288380D01*
X75619428Y-143159238D02*
X75619428Y-141127238D01*
X76780571Y-143159238D01*
X76780571Y-141127238D01*
X77748190Y-143159238D02*
X77748190Y-141127238D01*
X78232000Y-141127238D01*
X78522285Y-141224000D01*
X78715809Y-141417523D01*
X78812571Y-141611047D01*
X78909333Y-141998095D01*
X78909333Y-142288380D01*
X78812571Y-142675428D01*
X78715809Y-142868952D01*
X78522285Y-143062476D01*
X78232000Y-143159238D01*
X77748190Y-143159238D01*
X123722190Y-80167238D02*
X124883333Y-80167238D01*
X124302761Y-82199238D02*
X124302761Y-80167238D01*
X125560666Y-82199238D02*
X125560666Y-80167238D01*
X125560666Y-81134857D02*
X126721809Y-81134857D01*
X126721809Y-82199238D02*
X126721809Y-80167238D01*
X128850571Y-82199238D02*
X128173238Y-81231619D01*
X127689428Y-82199238D02*
X127689428Y-80167238D01*
X128463523Y-80167238D01*
X128657047Y-80264000D01*
X128753809Y-80360761D01*
X128850571Y-80554285D01*
X128850571Y-80844571D01*
X128753809Y-81038095D01*
X128657047Y-81134857D01*
X128463523Y-81231619D01*
X127689428Y-81231619D01*
X129721428Y-81134857D02*
X130398761Y-81134857D01*
X130689047Y-82199238D02*
X129721428Y-82199238D01*
X129721428Y-80167238D01*
X130689047Y-80167238D01*
X131463142Y-82102476D02*
X131753428Y-82199238D01*
X132237238Y-82199238D01*
X132430761Y-82102476D01*
X132527523Y-82005714D01*
X132624285Y-81812190D01*
X132624285Y-81618666D01*
X132527523Y-81425142D01*
X132430761Y-81328380D01*
X132237238Y-81231619D01*
X131850190Y-81134857D01*
X131656666Y-81038095D01*
X131559904Y-80941333D01*
X131463142Y-80747809D01*
X131463142Y-80554285D01*
X131559904Y-80360761D01*
X131656666Y-80264000D01*
X131850190Y-80167238D01*
X132334000Y-80167238D01*
X132624285Y-80264000D01*
X73490666Y-80167238D02*
X74168000Y-82199238D01*
X74845333Y-80167238D01*
X76683809Y-82005714D02*
X76587047Y-82102476D01*
X76296761Y-82199238D01*
X76103238Y-82199238D01*
X75812952Y-82102476D01*
X75619428Y-81908952D01*
X75522666Y-81715428D01*
X75425904Y-81328380D01*
X75425904Y-81038095D01*
X75522666Y-80651047D01*
X75619428Y-80457523D01*
X75812952Y-80264000D01*
X76103238Y-80167238D01*
X76296761Y-80167238D01*
X76587047Y-80264000D01*
X76683809Y-80360761D01*
X78715809Y-82005714D02*
X78619047Y-82102476D01*
X78328761Y-82199238D01*
X78135238Y-82199238D01*
X77844952Y-82102476D01*
X77651428Y-81908952D01*
X77554666Y-81715428D01*
X77457904Y-81328380D01*
X77457904Y-81038095D01*
X77554666Y-80651047D01*
X77651428Y-80457523D01*
X77844952Y-80264000D01*
X78135238Y-80167238D01*
X78328761Y-80167238D01*
X78619047Y-80264000D01*
X78715809Y-80360761D01*
D13*
X126428571Y-102782619D02*
X126333333Y-102735000D01*
X126238095Y-102639761D01*
X126095238Y-102496904D01*
X126000000Y-102449285D01*
X125904761Y-102449285D01*
X125952380Y-102687380D02*
X125857142Y-102639761D01*
X125761904Y-102544523D01*
X125714285Y-102354047D01*
X125714285Y-102020714D01*
X125761904Y-101830238D01*
X125857142Y-101735000D01*
X125952380Y-101687380D01*
X126142857Y-101687380D01*
X126238095Y-101735000D01*
X126333333Y-101830238D01*
X126380952Y-102020714D01*
X126380952Y-102354047D01*
X126333333Y-102544523D01*
X126238095Y-102639761D01*
X126142857Y-102687380D01*
X125952380Y-102687380D01*
X127333333Y-102687380D02*
X126761904Y-102687380D01*
X127047619Y-102687380D02*
X127047619Y-101687380D01*
X126952380Y-101830238D01*
X126857142Y-101925476D01*
X126761904Y-101973095D01*
X127809523Y-102687380D02*
X128000000Y-102687380D01*
X128095238Y-102639761D01*
X128142857Y-102592142D01*
X128238095Y-102449285D01*
X128285714Y-102258809D01*
X128285714Y-101877857D01*
X128238095Y-101782619D01*
X128190476Y-101735000D01*
X128095238Y-101687380D01*
X127904761Y-101687380D01*
X127809523Y-101735000D01*
X127761904Y-101782619D01*
X127714285Y-101877857D01*
X127714285Y-102115952D01*
X127761904Y-102211190D01*
X127809523Y-102258809D01*
X127904761Y-102306428D01*
X128095238Y-102306428D01*
X128190476Y-102258809D01*
X128238095Y-102211190D01*
X128285714Y-102115952D01*
X90452380Y-100496666D02*
X89976190Y-100830000D01*
X90452380Y-101068095D02*
X89452380Y-101068095D01*
X89452380Y-100687142D01*
X89500000Y-100591904D01*
X89547619Y-100544285D01*
X89642857Y-100496666D01*
X89785714Y-100496666D01*
X89880952Y-100544285D01*
X89928571Y-100591904D01*
X89976190Y-100687142D01*
X89976190Y-101068095D01*
X89452380Y-99591904D02*
X89452380Y-100068095D01*
X89928571Y-100115714D01*
X89880952Y-100068095D01*
X89833333Y-99972857D01*
X89833333Y-99734761D01*
X89880952Y-99639523D01*
X89928571Y-99591904D01*
X90023809Y-99544285D01*
X90261904Y-99544285D01*
X90357142Y-99591904D01*
X90404761Y-99639523D01*
X90452380Y-99734761D01*
X90452380Y-99972857D01*
X90404761Y-100068095D01*
X90357142Y-100115714D01*
X82832380Y-117006666D02*
X82356190Y-117340000D01*
X82832380Y-117578095D02*
X81832380Y-117578095D01*
X81832380Y-117197142D01*
X81880000Y-117101904D01*
X81927619Y-117054285D01*
X82022857Y-117006666D01*
X82165714Y-117006666D01*
X82260952Y-117054285D01*
X82308571Y-117101904D01*
X82356190Y-117197142D01*
X82356190Y-117578095D01*
X81832380Y-116673333D02*
X81832380Y-116054285D01*
X82213333Y-116387619D01*
X82213333Y-116244761D01*
X82260952Y-116149523D01*
X82308571Y-116101904D01*
X82403809Y-116054285D01*
X82641904Y-116054285D01*
X82737142Y-116101904D01*
X82784761Y-116149523D01*
X82832380Y-116244761D01*
X82832380Y-116530476D01*
X82784761Y-116625714D01*
X82737142Y-116673333D01*
X156932380Y-125118666D02*
X157646666Y-125118666D01*
X157789523Y-125166285D01*
X157884761Y-125261523D01*
X157932380Y-125404380D01*
X157932380Y-125499619D01*
X156932380Y-124785333D02*
X156932380Y-124213904D01*
X157932380Y-124499619D02*
X156932380Y-124499619D01*
X157646666Y-123928190D02*
X157646666Y-123452000D01*
X157932380Y-124023428D02*
X156932380Y-123690095D01*
X157932380Y-123356761D01*
X156980000Y-122499619D02*
X156932380Y-122594857D01*
X156932380Y-122737714D01*
X156980000Y-122880571D01*
X157075238Y-122975809D01*
X157170476Y-123023428D01*
X157360952Y-123071047D01*
X157503809Y-123071047D01*
X157694285Y-123023428D01*
X157789523Y-122975809D01*
X157884761Y-122880571D01*
X157932380Y-122737714D01*
X157932380Y-122642476D01*
X157884761Y-122499619D01*
X157837142Y-122452000D01*
X157503809Y-122452000D01*
X157503809Y-122642476D01*
X71024761Y-121832619D02*
X70929523Y-121785000D01*
X70834285Y-121689761D01*
X70691428Y-121546904D01*
X70596190Y-121499285D01*
X70500952Y-121499285D01*
X70548571Y-121737380D02*
X70453333Y-121689761D01*
X70358095Y-121594523D01*
X70310476Y-121404047D01*
X70310476Y-121070714D01*
X70358095Y-120880238D01*
X70453333Y-120785000D01*
X70548571Y-120737380D01*
X70739047Y-120737380D01*
X70834285Y-120785000D01*
X70929523Y-120880238D01*
X70977142Y-121070714D01*
X70977142Y-121404047D01*
X70929523Y-121594523D01*
X70834285Y-121689761D01*
X70739047Y-121737380D01*
X70548571Y-121737380D01*
X71929523Y-121737380D02*
X71358095Y-121737380D01*
X71643809Y-121737380D02*
X71643809Y-120737380D01*
X71548571Y-120880238D01*
X71453333Y-120975476D01*
X71358095Y-121023095D01*
X71024761Y-116752619D02*
X70929523Y-116705000D01*
X70834285Y-116609761D01*
X70691428Y-116466904D01*
X70596190Y-116419285D01*
X70500952Y-116419285D01*
X70548571Y-116657380D02*
X70453333Y-116609761D01*
X70358095Y-116514523D01*
X70310476Y-116324047D01*
X70310476Y-115990714D01*
X70358095Y-115800238D01*
X70453333Y-115705000D01*
X70548571Y-115657380D01*
X70739047Y-115657380D01*
X70834285Y-115705000D01*
X70929523Y-115800238D01*
X70977142Y-115990714D01*
X70977142Y-116324047D01*
X70929523Y-116514523D01*
X70834285Y-116609761D01*
X70739047Y-116657380D01*
X70548571Y-116657380D01*
X71358095Y-115752619D02*
X71405714Y-115705000D01*
X71500952Y-115657380D01*
X71739047Y-115657380D01*
X71834285Y-115705000D01*
X71881904Y-115752619D01*
X71929523Y-115847857D01*
X71929523Y-115943095D01*
X71881904Y-116085952D01*
X71310476Y-116657380D01*
X71929523Y-116657380D01*
X76104761Y-116752619D02*
X76009523Y-116705000D01*
X75914285Y-116609761D01*
X75771428Y-116466904D01*
X75676190Y-116419285D01*
X75580952Y-116419285D01*
X75628571Y-116657380D02*
X75533333Y-116609761D01*
X75438095Y-116514523D01*
X75390476Y-116324047D01*
X75390476Y-115990714D01*
X75438095Y-115800238D01*
X75533333Y-115705000D01*
X75628571Y-115657380D01*
X75819047Y-115657380D01*
X75914285Y-115705000D01*
X76009523Y-115800238D01*
X76057142Y-115990714D01*
X76057142Y-116324047D01*
X76009523Y-116514523D01*
X75914285Y-116609761D01*
X75819047Y-116657380D01*
X75628571Y-116657380D01*
X76390476Y-115657380D02*
X77009523Y-115657380D01*
X76676190Y-116038333D01*
X76819047Y-116038333D01*
X76914285Y-116085952D01*
X76961904Y-116133571D01*
X77009523Y-116228809D01*
X77009523Y-116466904D01*
X76961904Y-116562142D01*
X76914285Y-116609761D01*
X76819047Y-116657380D01*
X76533333Y-116657380D01*
X76438095Y-116609761D01*
X76390476Y-116562142D01*
X76104761Y-121832619D02*
X76009523Y-121785000D01*
X75914285Y-121689761D01*
X75771428Y-121546904D01*
X75676190Y-121499285D01*
X75580952Y-121499285D01*
X75628571Y-121737380D02*
X75533333Y-121689761D01*
X75438095Y-121594523D01*
X75390476Y-121404047D01*
X75390476Y-121070714D01*
X75438095Y-120880238D01*
X75533333Y-120785000D01*
X75628571Y-120737380D01*
X75819047Y-120737380D01*
X75914285Y-120785000D01*
X76009523Y-120880238D01*
X76057142Y-121070714D01*
X76057142Y-121404047D01*
X76009523Y-121594523D01*
X75914285Y-121689761D01*
X75819047Y-121737380D01*
X75628571Y-121737380D01*
X76914285Y-121070714D02*
X76914285Y-121737380D01*
X76676190Y-120689761D02*
X76438095Y-121404047D01*
X77057142Y-121404047D01*
X84994761Y-116752619D02*
X84899523Y-116705000D01*
X84804285Y-116609761D01*
X84661428Y-116466904D01*
X84566190Y-116419285D01*
X84470952Y-116419285D01*
X84518571Y-116657380D02*
X84423333Y-116609761D01*
X84328095Y-116514523D01*
X84280476Y-116324047D01*
X84280476Y-115990714D01*
X84328095Y-115800238D01*
X84423333Y-115705000D01*
X84518571Y-115657380D01*
X84709047Y-115657380D01*
X84804285Y-115705000D01*
X84899523Y-115800238D01*
X84947142Y-115990714D01*
X84947142Y-116324047D01*
X84899523Y-116514523D01*
X84804285Y-116609761D01*
X84709047Y-116657380D01*
X84518571Y-116657380D01*
X85851904Y-115657380D02*
X85375714Y-115657380D01*
X85328095Y-116133571D01*
X85375714Y-116085952D01*
X85470952Y-116038333D01*
X85709047Y-116038333D01*
X85804285Y-116085952D01*
X85851904Y-116133571D01*
X85899523Y-116228809D01*
X85899523Y-116466904D01*
X85851904Y-116562142D01*
X85804285Y-116609761D01*
X85709047Y-116657380D01*
X85470952Y-116657380D01*
X85375714Y-116609761D01*
X85328095Y-116562142D01*
X90074761Y-116752619D02*
X89979523Y-116705000D01*
X89884285Y-116609761D01*
X89741428Y-116466904D01*
X89646190Y-116419285D01*
X89550952Y-116419285D01*
X89598571Y-116657380D02*
X89503333Y-116609761D01*
X89408095Y-116514523D01*
X89360476Y-116324047D01*
X89360476Y-115990714D01*
X89408095Y-115800238D01*
X89503333Y-115705000D01*
X89598571Y-115657380D01*
X89789047Y-115657380D01*
X89884285Y-115705000D01*
X89979523Y-115800238D01*
X90027142Y-115990714D01*
X90027142Y-116324047D01*
X89979523Y-116514523D01*
X89884285Y-116609761D01*
X89789047Y-116657380D01*
X89598571Y-116657380D01*
X90884285Y-115657380D02*
X90693809Y-115657380D01*
X90598571Y-115705000D01*
X90550952Y-115752619D01*
X90455714Y-115895476D01*
X90408095Y-116085952D01*
X90408095Y-116466904D01*
X90455714Y-116562142D01*
X90503333Y-116609761D01*
X90598571Y-116657380D01*
X90789047Y-116657380D01*
X90884285Y-116609761D01*
X90931904Y-116562142D01*
X90979523Y-116466904D01*
X90979523Y-116228809D01*
X90931904Y-116133571D01*
X90884285Y-116085952D01*
X90789047Y-116038333D01*
X90598571Y-116038333D01*
X90503333Y-116085952D01*
X90455714Y-116133571D01*
X90408095Y-116228809D01*
X84994761Y-121832619D02*
X84899523Y-121785000D01*
X84804285Y-121689761D01*
X84661428Y-121546904D01*
X84566190Y-121499285D01*
X84470952Y-121499285D01*
X84518571Y-121737380D02*
X84423333Y-121689761D01*
X84328095Y-121594523D01*
X84280476Y-121404047D01*
X84280476Y-121070714D01*
X84328095Y-120880238D01*
X84423333Y-120785000D01*
X84518571Y-120737380D01*
X84709047Y-120737380D01*
X84804285Y-120785000D01*
X84899523Y-120880238D01*
X84947142Y-121070714D01*
X84947142Y-121404047D01*
X84899523Y-121594523D01*
X84804285Y-121689761D01*
X84709047Y-121737380D01*
X84518571Y-121737380D01*
X85280476Y-120737380D02*
X85947142Y-120737380D01*
X85518571Y-121737380D01*
X90074761Y-121832619D02*
X89979523Y-121785000D01*
X89884285Y-121689761D01*
X89741428Y-121546904D01*
X89646190Y-121499285D01*
X89550952Y-121499285D01*
X89598571Y-121737380D02*
X89503333Y-121689761D01*
X89408095Y-121594523D01*
X89360476Y-121404047D01*
X89360476Y-121070714D01*
X89408095Y-120880238D01*
X89503333Y-120785000D01*
X89598571Y-120737380D01*
X89789047Y-120737380D01*
X89884285Y-120785000D01*
X89979523Y-120880238D01*
X90027142Y-121070714D01*
X90027142Y-121404047D01*
X89979523Y-121594523D01*
X89884285Y-121689761D01*
X89789047Y-121737380D01*
X89598571Y-121737380D01*
X90598571Y-121165952D02*
X90503333Y-121118333D01*
X90455714Y-121070714D01*
X90408095Y-120975476D01*
X90408095Y-120927857D01*
X90455714Y-120832619D01*
X90503333Y-120785000D01*
X90598571Y-120737380D01*
X90789047Y-120737380D01*
X90884285Y-120785000D01*
X90931904Y-120832619D01*
X90979523Y-120927857D01*
X90979523Y-120975476D01*
X90931904Y-121070714D01*
X90884285Y-121118333D01*
X90789047Y-121165952D01*
X90598571Y-121165952D01*
X90503333Y-121213571D01*
X90455714Y-121261190D01*
X90408095Y-121356428D01*
X90408095Y-121546904D01*
X90455714Y-121642142D01*
X90503333Y-121689761D01*
X90598571Y-121737380D01*
X90789047Y-121737380D01*
X90884285Y-121689761D01*
X90931904Y-121642142D01*
X90979523Y-121546904D01*
X90979523Y-121356428D01*
X90931904Y-121261190D01*
X90884285Y-121213571D01*
X90789047Y-121165952D01*
X98964761Y-121832619D02*
X98869523Y-121785000D01*
X98774285Y-121689761D01*
X98631428Y-121546904D01*
X98536190Y-121499285D01*
X98440952Y-121499285D01*
X98488571Y-121737380D02*
X98393333Y-121689761D01*
X98298095Y-121594523D01*
X98250476Y-121404047D01*
X98250476Y-121070714D01*
X98298095Y-120880238D01*
X98393333Y-120785000D01*
X98488571Y-120737380D01*
X98679047Y-120737380D01*
X98774285Y-120785000D01*
X98869523Y-120880238D01*
X98917142Y-121070714D01*
X98917142Y-121404047D01*
X98869523Y-121594523D01*
X98774285Y-121689761D01*
X98679047Y-121737380D01*
X98488571Y-121737380D01*
X99393333Y-121737380D02*
X99583809Y-121737380D01*
X99679047Y-121689761D01*
X99726666Y-121642142D01*
X99821904Y-121499285D01*
X99869523Y-121308809D01*
X99869523Y-120927857D01*
X99821904Y-120832619D01*
X99774285Y-120785000D01*
X99679047Y-120737380D01*
X99488571Y-120737380D01*
X99393333Y-120785000D01*
X99345714Y-120832619D01*
X99298095Y-120927857D01*
X99298095Y-121165952D01*
X99345714Y-121261190D01*
X99393333Y-121308809D01*
X99488571Y-121356428D01*
X99679047Y-121356428D01*
X99774285Y-121308809D01*
X99821904Y-121261190D01*
X99869523Y-121165952D01*
X98488571Y-116752619D02*
X98393333Y-116705000D01*
X98298095Y-116609761D01*
X98155238Y-116466904D01*
X98060000Y-116419285D01*
X97964761Y-116419285D01*
X98012380Y-116657380D02*
X97917142Y-116609761D01*
X97821904Y-116514523D01*
X97774285Y-116324047D01*
X97774285Y-115990714D01*
X97821904Y-115800238D01*
X97917142Y-115705000D01*
X98012380Y-115657380D01*
X98202857Y-115657380D01*
X98298095Y-115705000D01*
X98393333Y-115800238D01*
X98440952Y-115990714D01*
X98440952Y-116324047D01*
X98393333Y-116514523D01*
X98298095Y-116609761D01*
X98202857Y-116657380D01*
X98012380Y-116657380D01*
X99393333Y-116657380D02*
X98821904Y-116657380D01*
X99107619Y-116657380D02*
X99107619Y-115657380D01*
X99012380Y-115800238D01*
X98917142Y-115895476D01*
X98821904Y-115943095D01*
X100012380Y-115657380D02*
X100107619Y-115657380D01*
X100202857Y-115705000D01*
X100250476Y-115752619D01*
X100298095Y-115847857D01*
X100345714Y-116038333D01*
X100345714Y-116276428D01*
X100298095Y-116466904D01*
X100250476Y-116562142D01*
X100202857Y-116609761D01*
X100107619Y-116657380D01*
X100012380Y-116657380D01*
X99917142Y-116609761D01*
X99869523Y-116562142D01*
X99821904Y-116466904D01*
X99774285Y-116276428D01*
X99774285Y-116038333D01*
X99821904Y-115847857D01*
X99869523Y-115752619D01*
X99917142Y-115705000D01*
X100012380Y-115657380D01*
X98488571Y-103417619D02*
X98393333Y-103370000D01*
X98298095Y-103274761D01*
X98155238Y-103131904D01*
X98060000Y-103084285D01*
X97964761Y-103084285D01*
X98012380Y-103322380D02*
X97917142Y-103274761D01*
X97821904Y-103179523D01*
X97774285Y-102989047D01*
X97774285Y-102655714D01*
X97821904Y-102465238D01*
X97917142Y-102370000D01*
X98012380Y-102322380D01*
X98202857Y-102322380D01*
X98298095Y-102370000D01*
X98393333Y-102465238D01*
X98440952Y-102655714D01*
X98440952Y-102989047D01*
X98393333Y-103179523D01*
X98298095Y-103274761D01*
X98202857Y-103322380D01*
X98012380Y-103322380D01*
X99393333Y-103322380D02*
X98821904Y-103322380D01*
X99107619Y-103322380D02*
X99107619Y-102322380D01*
X99012380Y-102465238D01*
X98917142Y-102560476D01*
X98821904Y-102608095D01*
X100345714Y-103322380D02*
X99774285Y-103322380D01*
X100060000Y-103322380D02*
X100060000Y-102322380D01*
X99964761Y-102465238D01*
X99869523Y-102560476D01*
X99774285Y-102608095D01*
X111188571Y-102782619D02*
X111093333Y-102735000D01*
X110998095Y-102639761D01*
X110855238Y-102496904D01*
X110760000Y-102449285D01*
X110664761Y-102449285D01*
X110712380Y-102687380D02*
X110617142Y-102639761D01*
X110521904Y-102544523D01*
X110474285Y-102354047D01*
X110474285Y-102020714D01*
X110521904Y-101830238D01*
X110617142Y-101735000D01*
X110712380Y-101687380D01*
X110902857Y-101687380D01*
X110998095Y-101735000D01*
X111093333Y-101830238D01*
X111140952Y-102020714D01*
X111140952Y-102354047D01*
X111093333Y-102544523D01*
X110998095Y-102639761D01*
X110902857Y-102687380D01*
X110712380Y-102687380D01*
X112093333Y-102687380D02*
X111521904Y-102687380D01*
X111807619Y-102687380D02*
X111807619Y-101687380D01*
X111712380Y-101830238D01*
X111617142Y-101925476D01*
X111521904Y-101973095D01*
X112474285Y-101782619D02*
X112521904Y-101735000D01*
X112617142Y-101687380D01*
X112855238Y-101687380D01*
X112950476Y-101735000D01*
X112998095Y-101782619D01*
X113045714Y-101877857D01*
X113045714Y-101973095D01*
X112998095Y-102115952D01*
X112426666Y-102687380D01*
X113045714Y-102687380D01*
X111188571Y-121832619D02*
X111093333Y-121785000D01*
X110998095Y-121689761D01*
X110855238Y-121546904D01*
X110760000Y-121499285D01*
X110664761Y-121499285D01*
X110712380Y-121737380D02*
X110617142Y-121689761D01*
X110521904Y-121594523D01*
X110474285Y-121404047D01*
X110474285Y-121070714D01*
X110521904Y-120880238D01*
X110617142Y-120785000D01*
X110712380Y-120737380D01*
X110902857Y-120737380D01*
X110998095Y-120785000D01*
X111093333Y-120880238D01*
X111140952Y-121070714D01*
X111140952Y-121404047D01*
X111093333Y-121594523D01*
X110998095Y-121689761D01*
X110902857Y-121737380D01*
X110712380Y-121737380D01*
X112093333Y-121737380D02*
X111521904Y-121737380D01*
X111807619Y-121737380D02*
X111807619Y-120737380D01*
X111712380Y-120880238D01*
X111617142Y-120975476D01*
X111521904Y-121023095D01*
X112426666Y-120737380D02*
X113045714Y-120737380D01*
X112712380Y-121118333D01*
X112855238Y-121118333D01*
X112950476Y-121165952D01*
X112998095Y-121213571D01*
X113045714Y-121308809D01*
X113045714Y-121546904D01*
X112998095Y-121642142D01*
X112950476Y-121689761D01*
X112855238Y-121737380D01*
X112569523Y-121737380D01*
X112474285Y-121689761D01*
X112426666Y-121642142D01*
X116268571Y-102782619D02*
X116173333Y-102735000D01*
X116078095Y-102639761D01*
X115935238Y-102496904D01*
X115840000Y-102449285D01*
X115744761Y-102449285D01*
X115792380Y-102687380D02*
X115697142Y-102639761D01*
X115601904Y-102544523D01*
X115554285Y-102354047D01*
X115554285Y-102020714D01*
X115601904Y-101830238D01*
X115697142Y-101735000D01*
X115792380Y-101687380D01*
X115982857Y-101687380D01*
X116078095Y-101735000D01*
X116173333Y-101830238D01*
X116220952Y-102020714D01*
X116220952Y-102354047D01*
X116173333Y-102544523D01*
X116078095Y-102639761D01*
X115982857Y-102687380D01*
X115792380Y-102687380D01*
X117173333Y-102687380D02*
X116601904Y-102687380D01*
X116887619Y-102687380D02*
X116887619Y-101687380D01*
X116792380Y-101830238D01*
X116697142Y-101925476D01*
X116601904Y-101973095D01*
X118030476Y-102020714D02*
X118030476Y-102687380D01*
X117792380Y-101639761D02*
X117554285Y-102354047D01*
X118173333Y-102354047D01*
X116268571Y-121832619D02*
X116173333Y-121785000D01*
X116078095Y-121689761D01*
X115935238Y-121546904D01*
X115840000Y-121499285D01*
X115744761Y-121499285D01*
X115792380Y-121737380D02*
X115697142Y-121689761D01*
X115601904Y-121594523D01*
X115554285Y-121404047D01*
X115554285Y-121070714D01*
X115601904Y-120880238D01*
X115697142Y-120785000D01*
X115792380Y-120737380D01*
X115982857Y-120737380D01*
X116078095Y-120785000D01*
X116173333Y-120880238D01*
X116220952Y-121070714D01*
X116220952Y-121404047D01*
X116173333Y-121594523D01*
X116078095Y-121689761D01*
X115982857Y-121737380D01*
X115792380Y-121737380D01*
X117173333Y-121737380D02*
X116601904Y-121737380D01*
X116887619Y-121737380D02*
X116887619Y-120737380D01*
X116792380Y-120880238D01*
X116697142Y-120975476D01*
X116601904Y-121023095D01*
X118078095Y-120737380D02*
X117601904Y-120737380D01*
X117554285Y-121213571D01*
X117601904Y-121165952D01*
X117697142Y-121118333D01*
X117935238Y-121118333D01*
X118030476Y-121165952D01*
X118078095Y-121213571D01*
X118125714Y-121308809D01*
X118125714Y-121546904D01*
X118078095Y-121642142D01*
X118030476Y-121689761D01*
X117935238Y-121737380D01*
X117697142Y-121737380D01*
X117601904Y-121689761D01*
X117554285Y-121642142D01*
X121348571Y-102782619D02*
X121253333Y-102735000D01*
X121158095Y-102639761D01*
X121015238Y-102496904D01*
X120920000Y-102449285D01*
X120824761Y-102449285D01*
X120872380Y-102687380D02*
X120777142Y-102639761D01*
X120681904Y-102544523D01*
X120634285Y-102354047D01*
X120634285Y-102020714D01*
X120681904Y-101830238D01*
X120777142Y-101735000D01*
X120872380Y-101687380D01*
X121062857Y-101687380D01*
X121158095Y-101735000D01*
X121253333Y-101830238D01*
X121300952Y-102020714D01*
X121300952Y-102354047D01*
X121253333Y-102544523D01*
X121158095Y-102639761D01*
X121062857Y-102687380D01*
X120872380Y-102687380D01*
X122253333Y-102687380D02*
X121681904Y-102687380D01*
X121967619Y-102687380D02*
X121967619Y-101687380D01*
X121872380Y-101830238D01*
X121777142Y-101925476D01*
X121681904Y-101973095D01*
X123110476Y-101687380D02*
X122920000Y-101687380D01*
X122824761Y-101735000D01*
X122777142Y-101782619D01*
X122681904Y-101925476D01*
X122634285Y-102115952D01*
X122634285Y-102496904D01*
X122681904Y-102592142D01*
X122729523Y-102639761D01*
X122824761Y-102687380D01*
X123015238Y-102687380D01*
X123110476Y-102639761D01*
X123158095Y-102592142D01*
X123205714Y-102496904D01*
X123205714Y-102258809D01*
X123158095Y-102163571D01*
X123110476Y-102115952D01*
X123015238Y-102068333D01*
X122824761Y-102068333D01*
X122729523Y-102115952D01*
X122681904Y-102163571D01*
X122634285Y-102258809D01*
X121348571Y-121832619D02*
X121253333Y-121785000D01*
X121158095Y-121689761D01*
X121015238Y-121546904D01*
X120920000Y-121499285D01*
X120824761Y-121499285D01*
X120872380Y-121737380D02*
X120777142Y-121689761D01*
X120681904Y-121594523D01*
X120634285Y-121404047D01*
X120634285Y-121070714D01*
X120681904Y-120880238D01*
X120777142Y-120785000D01*
X120872380Y-120737380D01*
X121062857Y-120737380D01*
X121158095Y-120785000D01*
X121253333Y-120880238D01*
X121300952Y-121070714D01*
X121300952Y-121404047D01*
X121253333Y-121594523D01*
X121158095Y-121689761D01*
X121062857Y-121737380D01*
X120872380Y-121737380D01*
X122253333Y-121737380D02*
X121681904Y-121737380D01*
X121967619Y-121737380D02*
X121967619Y-120737380D01*
X121872380Y-120880238D01*
X121777142Y-120975476D01*
X121681904Y-121023095D01*
X122586666Y-120737380D02*
X123253333Y-120737380D01*
X122824761Y-121737380D01*
X126428571Y-121832619D02*
X126333333Y-121785000D01*
X126238095Y-121689761D01*
X126095238Y-121546904D01*
X126000000Y-121499285D01*
X125904761Y-121499285D01*
X125952380Y-121737380D02*
X125857142Y-121689761D01*
X125761904Y-121594523D01*
X125714285Y-121404047D01*
X125714285Y-121070714D01*
X125761904Y-120880238D01*
X125857142Y-120785000D01*
X125952380Y-120737380D01*
X126142857Y-120737380D01*
X126238095Y-120785000D01*
X126333333Y-120880238D01*
X126380952Y-121070714D01*
X126380952Y-121404047D01*
X126333333Y-121594523D01*
X126238095Y-121689761D01*
X126142857Y-121737380D01*
X125952380Y-121737380D01*
X127333333Y-121737380D02*
X126761904Y-121737380D01*
X127047619Y-121737380D02*
X127047619Y-120737380D01*
X126952380Y-120880238D01*
X126857142Y-120975476D01*
X126761904Y-121023095D01*
X127904761Y-121165952D02*
X127809523Y-121118333D01*
X127761904Y-121070714D01*
X127714285Y-120975476D01*
X127714285Y-120927857D01*
X127761904Y-120832619D01*
X127809523Y-120785000D01*
X127904761Y-120737380D01*
X128095238Y-120737380D01*
X128190476Y-120785000D01*
X128238095Y-120832619D01*
X128285714Y-120927857D01*
X128285714Y-120975476D01*
X128238095Y-121070714D01*
X128190476Y-121118333D01*
X128095238Y-121165952D01*
X127904761Y-121165952D01*
X127809523Y-121213571D01*
X127761904Y-121261190D01*
X127714285Y-121356428D01*
X127714285Y-121546904D01*
X127761904Y-121642142D01*
X127809523Y-121689761D01*
X127904761Y-121737380D01*
X128095238Y-121737380D01*
X128190476Y-121689761D01*
X128238095Y-121642142D01*
X128285714Y-121546904D01*
X128285714Y-121356428D01*
X128238095Y-121261190D01*
X128190476Y-121213571D01*
X128095238Y-121165952D01*
X134048571Y-116752619D02*
X133953333Y-116705000D01*
X133858095Y-116609761D01*
X133715238Y-116466904D01*
X133620000Y-116419285D01*
X133524761Y-116419285D01*
X133572380Y-116657380D02*
X133477142Y-116609761D01*
X133381904Y-116514523D01*
X133334285Y-116324047D01*
X133334285Y-115990714D01*
X133381904Y-115800238D01*
X133477142Y-115705000D01*
X133572380Y-115657380D01*
X133762857Y-115657380D01*
X133858095Y-115705000D01*
X133953333Y-115800238D01*
X134000952Y-115990714D01*
X134000952Y-116324047D01*
X133953333Y-116514523D01*
X133858095Y-116609761D01*
X133762857Y-116657380D01*
X133572380Y-116657380D01*
X134381904Y-115752619D02*
X134429523Y-115705000D01*
X134524761Y-115657380D01*
X134762857Y-115657380D01*
X134858095Y-115705000D01*
X134905714Y-115752619D01*
X134953333Y-115847857D01*
X134953333Y-115943095D01*
X134905714Y-116085952D01*
X134334285Y-116657380D01*
X134953333Y-116657380D01*
X135572380Y-115657380D02*
X135667619Y-115657380D01*
X135762857Y-115705000D01*
X135810476Y-115752619D01*
X135858095Y-115847857D01*
X135905714Y-116038333D01*
X135905714Y-116276428D01*
X135858095Y-116466904D01*
X135810476Y-116562142D01*
X135762857Y-116609761D01*
X135667619Y-116657380D01*
X135572380Y-116657380D01*
X135477142Y-116609761D01*
X135429523Y-116562142D01*
X135381904Y-116466904D01*
X135334285Y-116276428D01*
X135334285Y-116038333D01*
X135381904Y-115847857D01*
X135429523Y-115752619D01*
X135477142Y-115705000D01*
X135572380Y-115657380D01*
X141668571Y-93892619D02*
X141573333Y-93845000D01*
X141478095Y-93749761D01*
X141335238Y-93606904D01*
X141240000Y-93559285D01*
X141144761Y-93559285D01*
X141192380Y-93797380D02*
X141097142Y-93749761D01*
X141001904Y-93654523D01*
X140954285Y-93464047D01*
X140954285Y-93130714D01*
X141001904Y-92940238D01*
X141097142Y-92845000D01*
X141192380Y-92797380D01*
X141382857Y-92797380D01*
X141478095Y-92845000D01*
X141573333Y-92940238D01*
X141620952Y-93130714D01*
X141620952Y-93464047D01*
X141573333Y-93654523D01*
X141478095Y-93749761D01*
X141382857Y-93797380D01*
X141192380Y-93797380D01*
X142001904Y-92892619D02*
X142049523Y-92845000D01*
X142144761Y-92797380D01*
X142382857Y-92797380D01*
X142478095Y-92845000D01*
X142525714Y-92892619D01*
X142573333Y-92987857D01*
X142573333Y-93083095D01*
X142525714Y-93225952D01*
X141954285Y-93797380D01*
X142573333Y-93797380D01*
X143525714Y-93797380D02*
X142954285Y-93797380D01*
X143240000Y-93797380D02*
X143240000Y-92797380D01*
X143144761Y-92940238D01*
X143049523Y-93035476D01*
X142954285Y-93083095D01*
X141668571Y-130722619D02*
X141573333Y-130675000D01*
X141478095Y-130579761D01*
X141335238Y-130436904D01*
X141240000Y-130389285D01*
X141144761Y-130389285D01*
X141192380Y-130627380D02*
X141097142Y-130579761D01*
X141001904Y-130484523D01*
X140954285Y-130294047D01*
X140954285Y-129960714D01*
X141001904Y-129770238D01*
X141097142Y-129675000D01*
X141192380Y-129627380D01*
X141382857Y-129627380D01*
X141478095Y-129675000D01*
X141573333Y-129770238D01*
X141620952Y-129960714D01*
X141620952Y-130294047D01*
X141573333Y-130484523D01*
X141478095Y-130579761D01*
X141382857Y-130627380D01*
X141192380Y-130627380D01*
X142001904Y-129722619D02*
X142049523Y-129675000D01*
X142144761Y-129627380D01*
X142382857Y-129627380D01*
X142478095Y-129675000D01*
X142525714Y-129722619D01*
X142573333Y-129817857D01*
X142573333Y-129913095D01*
X142525714Y-130055952D01*
X141954285Y-130627380D01*
X142573333Y-130627380D01*
X142954285Y-129722619D02*
X143001904Y-129675000D01*
X143097142Y-129627380D01*
X143335238Y-129627380D01*
X143430476Y-129675000D01*
X143478095Y-129722619D01*
X143525714Y-129817857D01*
X143525714Y-129913095D01*
X143478095Y-130055952D01*
X142906666Y-130627380D01*
X143525714Y-130627380D01*
X146748571Y-93892619D02*
X146653333Y-93845000D01*
X146558095Y-93749761D01*
X146415238Y-93606904D01*
X146320000Y-93559285D01*
X146224761Y-93559285D01*
X146272380Y-93797380D02*
X146177142Y-93749761D01*
X146081904Y-93654523D01*
X146034285Y-93464047D01*
X146034285Y-93130714D01*
X146081904Y-92940238D01*
X146177142Y-92845000D01*
X146272380Y-92797380D01*
X146462857Y-92797380D01*
X146558095Y-92845000D01*
X146653333Y-92940238D01*
X146700952Y-93130714D01*
X146700952Y-93464047D01*
X146653333Y-93654523D01*
X146558095Y-93749761D01*
X146462857Y-93797380D01*
X146272380Y-93797380D01*
X147081904Y-92892619D02*
X147129523Y-92845000D01*
X147224761Y-92797380D01*
X147462857Y-92797380D01*
X147558095Y-92845000D01*
X147605714Y-92892619D01*
X147653333Y-92987857D01*
X147653333Y-93083095D01*
X147605714Y-93225952D01*
X147034285Y-93797380D01*
X147653333Y-93797380D01*
X147986666Y-92797380D02*
X148605714Y-92797380D01*
X148272380Y-93178333D01*
X148415238Y-93178333D01*
X148510476Y-93225952D01*
X148558095Y-93273571D01*
X148605714Y-93368809D01*
X148605714Y-93606904D01*
X148558095Y-93702142D01*
X148510476Y-93749761D01*
X148415238Y-93797380D01*
X148129523Y-93797380D01*
X148034285Y-93749761D01*
X147986666Y-93702142D01*
X146748571Y-130722619D02*
X146653333Y-130675000D01*
X146558095Y-130579761D01*
X146415238Y-130436904D01*
X146320000Y-130389285D01*
X146224761Y-130389285D01*
X146272380Y-130627380D02*
X146177142Y-130579761D01*
X146081904Y-130484523D01*
X146034285Y-130294047D01*
X146034285Y-129960714D01*
X146081904Y-129770238D01*
X146177142Y-129675000D01*
X146272380Y-129627380D01*
X146462857Y-129627380D01*
X146558095Y-129675000D01*
X146653333Y-129770238D01*
X146700952Y-129960714D01*
X146700952Y-130294047D01*
X146653333Y-130484523D01*
X146558095Y-130579761D01*
X146462857Y-130627380D01*
X146272380Y-130627380D01*
X147081904Y-129722619D02*
X147129523Y-129675000D01*
X147224761Y-129627380D01*
X147462857Y-129627380D01*
X147558095Y-129675000D01*
X147605714Y-129722619D01*
X147653333Y-129817857D01*
X147653333Y-129913095D01*
X147605714Y-130055952D01*
X147034285Y-130627380D01*
X147653333Y-130627380D01*
X148510476Y-129960714D02*
X148510476Y-130627380D01*
X148272380Y-129579761D02*
X148034285Y-130294047D01*
X148653333Y-130294047D01*
X151828571Y-102782619D02*
X151733333Y-102735000D01*
X151638095Y-102639761D01*
X151495238Y-102496904D01*
X151400000Y-102449285D01*
X151304761Y-102449285D01*
X151352380Y-102687380D02*
X151257142Y-102639761D01*
X151161904Y-102544523D01*
X151114285Y-102354047D01*
X151114285Y-102020714D01*
X151161904Y-101830238D01*
X151257142Y-101735000D01*
X151352380Y-101687380D01*
X151542857Y-101687380D01*
X151638095Y-101735000D01*
X151733333Y-101830238D01*
X151780952Y-102020714D01*
X151780952Y-102354047D01*
X151733333Y-102544523D01*
X151638095Y-102639761D01*
X151542857Y-102687380D01*
X151352380Y-102687380D01*
X152161904Y-101782619D02*
X152209523Y-101735000D01*
X152304761Y-101687380D01*
X152542857Y-101687380D01*
X152638095Y-101735000D01*
X152685714Y-101782619D01*
X152733333Y-101877857D01*
X152733333Y-101973095D01*
X152685714Y-102115952D01*
X152114285Y-102687380D01*
X152733333Y-102687380D01*
X153638095Y-101687380D02*
X153161904Y-101687380D01*
X153114285Y-102163571D01*
X153161904Y-102115952D01*
X153257142Y-102068333D01*
X153495238Y-102068333D01*
X153590476Y-102115952D01*
X153638095Y-102163571D01*
X153685714Y-102258809D01*
X153685714Y-102496904D01*
X153638095Y-102592142D01*
X153590476Y-102639761D01*
X153495238Y-102687380D01*
X153257142Y-102687380D01*
X153161904Y-102639761D01*
X153114285Y-102592142D01*
X151828571Y-121197619D02*
X151733333Y-121150000D01*
X151638095Y-121054761D01*
X151495238Y-120911904D01*
X151400000Y-120864285D01*
X151304761Y-120864285D01*
X151352380Y-121102380D02*
X151257142Y-121054761D01*
X151161904Y-120959523D01*
X151114285Y-120769047D01*
X151114285Y-120435714D01*
X151161904Y-120245238D01*
X151257142Y-120150000D01*
X151352380Y-120102380D01*
X151542857Y-120102380D01*
X151638095Y-120150000D01*
X151733333Y-120245238D01*
X151780952Y-120435714D01*
X151780952Y-120769047D01*
X151733333Y-120959523D01*
X151638095Y-121054761D01*
X151542857Y-121102380D01*
X151352380Y-121102380D01*
X152161904Y-120197619D02*
X152209523Y-120150000D01*
X152304761Y-120102380D01*
X152542857Y-120102380D01*
X152638095Y-120150000D01*
X152685714Y-120197619D01*
X152733333Y-120292857D01*
X152733333Y-120388095D01*
X152685714Y-120530952D01*
X152114285Y-121102380D01*
X152733333Y-121102380D01*
X153590476Y-120102380D02*
X153400000Y-120102380D01*
X153304761Y-120150000D01*
X153257142Y-120197619D01*
X153161904Y-120340476D01*
X153114285Y-120530952D01*
X153114285Y-120911904D01*
X153161904Y-121007142D01*
X153209523Y-121054761D01*
X153304761Y-121102380D01*
X153495238Y-121102380D01*
X153590476Y-121054761D01*
X153638095Y-121007142D01*
X153685714Y-120911904D01*
X153685714Y-120673809D01*
X153638095Y-120578571D01*
X153590476Y-120530952D01*
X153495238Y-120483333D01*
X153304761Y-120483333D01*
X153209523Y-120530952D01*
X153161904Y-120578571D01*
X153114285Y-120673809D01*
X75212380Y-100496666D02*
X74736190Y-100830000D01*
X75212380Y-101068095D02*
X74212380Y-101068095D01*
X74212380Y-100687142D01*
X74260000Y-100591904D01*
X74307619Y-100544285D01*
X74402857Y-100496666D01*
X74545714Y-100496666D01*
X74640952Y-100544285D01*
X74688571Y-100591904D01*
X74736190Y-100687142D01*
X74736190Y-101068095D01*
X75212380Y-99544285D02*
X75212380Y-100115714D01*
X75212380Y-99830000D02*
X74212380Y-99830000D01*
X74355238Y-99925238D01*
X74450476Y-100020476D01*
X74498095Y-100115714D01*
X80292380Y-100496666D02*
X79816190Y-100830000D01*
X80292380Y-101068095D02*
X79292380Y-101068095D01*
X79292380Y-100687142D01*
X79340000Y-100591904D01*
X79387619Y-100544285D01*
X79482857Y-100496666D01*
X79625714Y-100496666D01*
X79720952Y-100544285D01*
X79768571Y-100591904D01*
X79816190Y-100687142D01*
X79816190Y-101068095D01*
X79387619Y-100115714D02*
X79340000Y-100068095D01*
X79292380Y-99972857D01*
X79292380Y-99734761D01*
X79340000Y-99639523D01*
X79387619Y-99591904D01*
X79482857Y-99544285D01*
X79578095Y-99544285D01*
X79720952Y-99591904D01*
X80292380Y-100163333D01*
X80292380Y-99544285D01*
X85372380Y-100496666D02*
X84896190Y-100830000D01*
X85372380Y-101068095D02*
X84372380Y-101068095D01*
X84372380Y-100687142D01*
X84420000Y-100591904D01*
X84467619Y-100544285D01*
X84562857Y-100496666D01*
X84705714Y-100496666D01*
X84800952Y-100544285D01*
X84848571Y-100591904D01*
X84896190Y-100687142D01*
X84896190Y-101068095D01*
X84705714Y-99639523D02*
X85372380Y-99639523D01*
X84324761Y-99877619D02*
X85039047Y-100115714D01*
X85039047Y-99496666D01*
X95083333Y-107640380D02*
X94750000Y-107164190D01*
X94511904Y-107640380D02*
X94511904Y-106640380D01*
X94892857Y-106640380D01*
X94988095Y-106688000D01*
X95035714Y-106735619D01*
X95083333Y-106830857D01*
X95083333Y-106973714D01*
X95035714Y-107068952D01*
X94988095Y-107116571D01*
X94892857Y-107164190D01*
X94511904Y-107164190D01*
X95940476Y-106640380D02*
X95750000Y-106640380D01*
X95654761Y-106688000D01*
X95607142Y-106735619D01*
X95511904Y-106878476D01*
X95464285Y-107068952D01*
X95464285Y-107449904D01*
X95511904Y-107545142D01*
X95559523Y-107592761D01*
X95654761Y-107640380D01*
X95845238Y-107640380D01*
X95940476Y-107592761D01*
X95988095Y-107545142D01*
X96035714Y-107449904D01*
X96035714Y-107211809D01*
X95988095Y-107116571D01*
X95940476Y-107068952D01*
X95845238Y-107021333D01*
X95654761Y-107021333D01*
X95559523Y-107068952D01*
X95511904Y-107116571D01*
X95464285Y-107211809D01*
X95083333Y-116657380D02*
X94750000Y-116181190D01*
X94511904Y-116657380D02*
X94511904Y-115657380D01*
X94892857Y-115657380D01*
X94988095Y-115705000D01*
X95035714Y-115752619D01*
X95083333Y-115847857D01*
X95083333Y-115990714D01*
X95035714Y-116085952D01*
X94988095Y-116133571D01*
X94892857Y-116181190D01*
X94511904Y-116181190D01*
X95416666Y-115657380D02*
X96083333Y-115657380D01*
X95654761Y-116657380D01*
X103973333Y-116657380D02*
X103640000Y-116181190D01*
X103401904Y-116657380D02*
X103401904Y-115657380D01*
X103782857Y-115657380D01*
X103878095Y-115705000D01*
X103925714Y-115752619D01*
X103973333Y-115847857D01*
X103973333Y-115990714D01*
X103925714Y-116085952D01*
X103878095Y-116133571D01*
X103782857Y-116181190D01*
X103401904Y-116181190D01*
X104544761Y-116085952D02*
X104449523Y-116038333D01*
X104401904Y-115990714D01*
X104354285Y-115895476D01*
X104354285Y-115847857D01*
X104401904Y-115752619D01*
X104449523Y-115705000D01*
X104544761Y-115657380D01*
X104735238Y-115657380D01*
X104830476Y-115705000D01*
X104878095Y-115752619D01*
X104925714Y-115847857D01*
X104925714Y-115895476D01*
X104878095Y-115990714D01*
X104830476Y-116038333D01*
X104735238Y-116085952D01*
X104544761Y-116085952D01*
X104449523Y-116133571D01*
X104401904Y-116181190D01*
X104354285Y-116276428D01*
X104354285Y-116466904D01*
X104401904Y-116562142D01*
X104449523Y-116609761D01*
X104544761Y-116657380D01*
X104735238Y-116657380D01*
X104830476Y-116609761D01*
X104878095Y-116562142D01*
X104925714Y-116466904D01*
X104925714Y-116276428D01*
X104878095Y-116181190D01*
X104830476Y-116133571D01*
X104735238Y-116085952D01*
X103973333Y-107767380D02*
X103640000Y-107291190D01*
X103401904Y-107767380D02*
X103401904Y-106767380D01*
X103782857Y-106767380D01*
X103878095Y-106815000D01*
X103925714Y-106862619D01*
X103973333Y-106957857D01*
X103973333Y-107100714D01*
X103925714Y-107195952D01*
X103878095Y-107243571D01*
X103782857Y-107291190D01*
X103401904Y-107291190D01*
X104449523Y-107767380D02*
X104640000Y-107767380D01*
X104735238Y-107719761D01*
X104782857Y-107672142D01*
X104878095Y-107529285D01*
X104925714Y-107338809D01*
X104925714Y-106957857D01*
X104878095Y-106862619D01*
X104830476Y-106815000D01*
X104735238Y-106767380D01*
X104544761Y-106767380D01*
X104449523Y-106815000D01*
X104401904Y-106862619D01*
X104354285Y-106957857D01*
X104354285Y-107195952D01*
X104401904Y-107291190D01*
X104449523Y-107338809D01*
X104544761Y-107386428D01*
X104735238Y-107386428D01*
X104830476Y-107338809D01*
X104878095Y-107291190D01*
X104925714Y-107195952D01*
X130167142Y-116657380D02*
X129833809Y-116181190D01*
X129595714Y-116657380D02*
X129595714Y-115657380D01*
X129976666Y-115657380D01*
X130071904Y-115705000D01*
X130119523Y-115752619D01*
X130167142Y-115847857D01*
X130167142Y-115990714D01*
X130119523Y-116085952D01*
X130071904Y-116133571D01*
X129976666Y-116181190D01*
X129595714Y-116181190D01*
X131119523Y-116657380D02*
X130548095Y-116657380D01*
X130833809Y-116657380D02*
X130833809Y-115657380D01*
X130738571Y-115800238D01*
X130643333Y-115895476D01*
X130548095Y-115943095D01*
X131738571Y-115657380D02*
X131833809Y-115657380D01*
X131929047Y-115705000D01*
X131976666Y-115752619D01*
X132024285Y-115847857D01*
X132071904Y-116038333D01*
X132071904Y-116276428D01*
X132024285Y-116466904D01*
X131976666Y-116562142D01*
X131929047Y-116609761D01*
X131833809Y-116657380D01*
X131738571Y-116657380D01*
X131643333Y-116609761D01*
X131595714Y-116562142D01*
X131548095Y-116466904D01*
X131500476Y-116276428D01*
X131500476Y-116038333D01*
X131548095Y-115847857D01*
X131595714Y-115752619D01*
X131643333Y-115705000D01*
X131738571Y-115657380D01*
X130167142Y-107767380D02*
X129833809Y-107291190D01*
X129595714Y-107767380D02*
X129595714Y-106767380D01*
X129976666Y-106767380D01*
X130071904Y-106815000D01*
X130119523Y-106862619D01*
X130167142Y-106957857D01*
X130167142Y-107100714D01*
X130119523Y-107195952D01*
X130071904Y-107243571D01*
X129976666Y-107291190D01*
X129595714Y-107291190D01*
X131119523Y-107767380D02*
X130548095Y-107767380D01*
X130833809Y-107767380D02*
X130833809Y-106767380D01*
X130738571Y-106910238D01*
X130643333Y-107005476D01*
X130548095Y-107053095D01*
X132071904Y-107767380D02*
X131500476Y-107767380D01*
X131786190Y-107767380D02*
X131786190Y-106767380D01*
X131690952Y-106910238D01*
X131595714Y-107005476D01*
X131500476Y-107053095D01*
X135072380Y-100972857D02*
X134596190Y-101306190D01*
X135072380Y-101544285D02*
X134072380Y-101544285D01*
X134072380Y-101163333D01*
X134120000Y-101068095D01*
X134167619Y-101020476D01*
X134262857Y-100972857D01*
X134405714Y-100972857D01*
X134500952Y-101020476D01*
X134548571Y-101068095D01*
X134596190Y-101163333D01*
X134596190Y-101544285D01*
X135072380Y-100020476D02*
X135072380Y-100591904D01*
X135072380Y-100306190D02*
X134072380Y-100306190D01*
X134215238Y-100401428D01*
X134310476Y-100496666D01*
X134358095Y-100591904D01*
X134167619Y-99639523D02*
X134120000Y-99591904D01*
X134072380Y-99496666D01*
X134072380Y-99258571D01*
X134120000Y-99163333D01*
X134167619Y-99115714D01*
X134262857Y-99068095D01*
X134358095Y-99068095D01*
X134500952Y-99115714D01*
X135072380Y-99687142D01*
X135072380Y-99068095D01*
X135072380Y-123832857D02*
X134596190Y-124166190D01*
X135072380Y-124404285D02*
X134072380Y-124404285D01*
X134072380Y-124023333D01*
X134120000Y-123928095D01*
X134167619Y-123880476D01*
X134262857Y-123832857D01*
X134405714Y-123832857D01*
X134500952Y-123880476D01*
X134548571Y-123928095D01*
X134596190Y-124023333D01*
X134596190Y-124404285D01*
X135072380Y-122880476D02*
X135072380Y-123451904D01*
X135072380Y-123166190D02*
X134072380Y-123166190D01*
X134215238Y-123261428D01*
X134310476Y-123356666D01*
X134358095Y-123451904D01*
X134072380Y-122547142D02*
X134072380Y-121928095D01*
X134453333Y-122261428D01*
X134453333Y-122118571D01*
X134500952Y-122023333D01*
X134548571Y-121975714D01*
X134643809Y-121928095D01*
X134881904Y-121928095D01*
X134977142Y-121975714D01*
X135024761Y-122023333D01*
X135072380Y-122118571D01*
X135072380Y-122404285D01*
X135024761Y-122499523D01*
X134977142Y-122547142D01*
X140327142Y-105227380D02*
X139993809Y-104751190D01*
X139755714Y-105227380D02*
X139755714Y-104227380D01*
X140136666Y-104227380D01*
X140231904Y-104275000D01*
X140279523Y-104322619D01*
X140327142Y-104417857D01*
X140327142Y-104560714D01*
X140279523Y-104655952D01*
X140231904Y-104703571D01*
X140136666Y-104751190D01*
X139755714Y-104751190D01*
X141279523Y-105227380D02*
X140708095Y-105227380D01*
X140993809Y-105227380D02*
X140993809Y-104227380D01*
X140898571Y-104370238D01*
X140803333Y-104465476D01*
X140708095Y-104513095D01*
X142136666Y-104560714D02*
X142136666Y-105227380D01*
X141898571Y-104179761D02*
X141660476Y-104894047D01*
X142279523Y-104894047D01*
X144137142Y-105227380D02*
X143803809Y-104751190D01*
X143565714Y-105227380D02*
X143565714Y-104227380D01*
X143946666Y-104227380D01*
X144041904Y-104275000D01*
X144089523Y-104322619D01*
X144137142Y-104417857D01*
X144137142Y-104560714D01*
X144089523Y-104655952D01*
X144041904Y-104703571D01*
X143946666Y-104751190D01*
X143565714Y-104751190D01*
X145089523Y-105227380D02*
X144518095Y-105227380D01*
X144803809Y-105227380D02*
X144803809Y-104227380D01*
X144708571Y-104370238D01*
X144613333Y-104465476D01*
X144518095Y-104513095D01*
X145994285Y-104227380D02*
X145518095Y-104227380D01*
X145470476Y-104703571D01*
X145518095Y-104655952D01*
X145613333Y-104608333D01*
X145851428Y-104608333D01*
X145946666Y-104655952D01*
X145994285Y-104703571D01*
X146041904Y-104798809D01*
X146041904Y-105036904D01*
X145994285Y-105132142D01*
X145946666Y-105179761D01*
X145851428Y-105227380D01*
X145613333Y-105227380D01*
X145518095Y-105179761D01*
X145470476Y-105132142D01*
X147947142Y-105227380D02*
X147613809Y-104751190D01*
X147375714Y-105227380D02*
X147375714Y-104227380D01*
X147756666Y-104227380D01*
X147851904Y-104275000D01*
X147899523Y-104322619D01*
X147947142Y-104417857D01*
X147947142Y-104560714D01*
X147899523Y-104655952D01*
X147851904Y-104703571D01*
X147756666Y-104751190D01*
X147375714Y-104751190D01*
X148899523Y-105227380D02*
X148328095Y-105227380D01*
X148613809Y-105227380D02*
X148613809Y-104227380D01*
X148518571Y-104370238D01*
X148423333Y-104465476D01*
X148328095Y-104513095D01*
X149756666Y-104227380D02*
X149566190Y-104227380D01*
X149470952Y-104275000D01*
X149423333Y-104322619D01*
X149328095Y-104465476D01*
X149280476Y-104655952D01*
X149280476Y-105036904D01*
X149328095Y-105132142D01*
X149375714Y-105179761D01*
X149470952Y-105227380D01*
X149661428Y-105227380D01*
X149756666Y-105179761D01*
X149804285Y-105132142D01*
X149851904Y-105036904D01*
X149851904Y-104798809D01*
X149804285Y-104703571D01*
X149756666Y-104655952D01*
X149661428Y-104608333D01*
X149470952Y-104608333D01*
X149375714Y-104655952D01*
X149328095Y-104703571D01*
X149280476Y-104798809D01*
X151757142Y-105227380D02*
X151423809Y-104751190D01*
X151185714Y-105227380D02*
X151185714Y-104227380D01*
X151566666Y-104227380D01*
X151661904Y-104275000D01*
X151709523Y-104322619D01*
X151757142Y-104417857D01*
X151757142Y-104560714D01*
X151709523Y-104655952D01*
X151661904Y-104703571D01*
X151566666Y-104751190D01*
X151185714Y-104751190D01*
X152709523Y-105227380D02*
X152138095Y-105227380D01*
X152423809Y-105227380D02*
X152423809Y-104227380D01*
X152328571Y-104370238D01*
X152233333Y-104465476D01*
X152138095Y-104513095D01*
X153042857Y-104227380D02*
X153709523Y-104227380D01*
X153280952Y-105227380D01*
M02*
